<svg xmlns="http://www.w3.org/2000/svg" xml:space="preserve" width="858.4892" height="501.62396" viewBox="0 0 858.48919 501.62396"><g style="stroke-width:.723104"><path d="M27.728 226.816c-7.536 0-13.646 4.973-13.646 11.106s6.11 11.106 13.646 11.106 13.645-4.973 13.645-11.106-6.109-11.106-13.645-11.106m-.404 52.987c6.058 0 10.969-4.315 10.969-9.637 0-5.323-4.911-9.638-10.97-9.638-6.057 0-10.967 4.315-10.967 9.638s4.91 9.637 10.968 9.637m17.518-24.168c4.856 3.929 7.888 9.47 7.888 15.616 0 11.914-11.375 21.572-25.406 21.572s-25.405-9.658-25.405-21.572c0-6.297 3.18-11.963 8.247-15.907C3.96 251.14 0 244.756 0 237.607c0-12.659 12.415-22.922 27.728-22.922s27.728 10.263 27.728 22.922c0 7.319-4.154 13.831-10.614 18.028M27.728 129.863c-7.536 0-13.646 4.972-13.646 11.105 0 6.134 6.11 11.107 13.646 11.107s13.645-4.973 13.645-11.107-6.109-11.105-13.645-11.105m-.404 52.986c6.058 0 10.969-4.314 10.969-9.636 0-5.324-4.911-9.638-10.97-9.638-6.057 0-10.967 4.314-10.967 9.638 0 5.322 4.91 9.636 10.968 9.636m17.518-24.168c4.856 3.93 7.888 9.471 7.888 15.616 0 11.915-11.375 21.573-25.406 21.573s-25.405-9.658-25.405-21.573c0-6.297 3.18-11.962 8.247-15.907C3.96 154.187 0 147.803 0 140.654c0-12.66 12.415-22.922 27.728-22.922s27.728 10.262 27.728 22.922c0 7.318-4.154 13.831-10.614 18.027M27.728 32.909c-7.536 0-13.646 4.972-13.646 11.106s6.11 11.106 13.646 11.106 13.645-4.972 13.645-11.106-6.109-11.106-13.645-11.106m-.404 52.987c6.058 0 10.969-4.314 10.969-9.638 0-5.322-4.911-9.637-10.97-9.637-6.057 0-10.967 4.315-10.967 9.637 0 5.324 4.91 9.638 10.968 9.638m17.518-24.168c4.856 3.929 7.888 9.47 7.888 15.615 0 11.914-11.375 21.574-25.406 21.574S1.919 89.257 1.919 77.343c0-6.296 3.18-11.963 8.247-15.906C3.96 57.233 0 50.85 0 43.7c0-12.659 12.415-22.922 27.728-22.922S55.456 31.041 55.456 43.7c0 7.32-4.154 13.83-10.614 18.028M123.328 263.495l-8.464-8.509s-4.558 7.365-14.695 7.365-10.087-4.958-10.016-6.163.428-4.596 17.797-6.51 17.194-12.698 16.981-16.526-1.419-10.785-9.816-14.792c-6.822-3.254-22.42-8.397-41.014 6.497l9.287 7.657s5.857-6.612 16.146-6.68c9.88-.066 12.581 6.268 10.419 9.013-1.676 2.128-5.652 3.622-18.696 5.82-13.044 2.197-14.604 10.633-14.604 15.455 0 4.82 6.168 16.589 18.999 16.589 12.832 0 19.452-1.206 27.676-9.216M463.934 263.495l-8.464-8.509s-4.558 7.365-14.695 7.365-10.086-4.958-10.016-6.163.428-4.596 17.797-6.51 17.194-12.698 16.981-16.526-1.419-10.785-9.816-14.792c-6.822-3.254-22.419-8.397-41.015 6.497l9.287 7.657s5.859-6.612 16.147-6.68c9.88-.066 12.581 6.268 10.419 9.013-1.676 2.128-5.651 3.622-18.696 5.82-13.044 2.197-14.604 10.633-14.604 15.455 0 4.82 6.167 16.589 18.999 16.589s19.452-1.206 27.676-9.216M156.628 262.428c11.004 0 13.187-10.786 13.187-10.786H142.85s2.774 10.786 13.778 10.786m16.731-27.581s-4.7-8.012-16.976-8.012-13.841 14.022-13.841 14.022h40.96v6.584c0 13.956-12.141 25.27-27.119 25.27s-27.119-11.314-27.119-25.27v-9.127c0-4.237 6.344-22.727 28.224-22.727s26.502 12.866 26.502 12.866zM240.576 231.451c-4.41-9.931-13.86-16.79-24.81-16.79-15.16 0-27.46 13.179-27.46 29.429 0 16.26 12.3 29.43 27.46 29.43 10.38 0 19.42-6.17 24.08-15.269l-11.61-6.231c-2.34 5.5-7.04 9.25-12.47 9.25-7.76 0-14.06-7.689-14.06-17.18s6.3-17.179 14.06-17.179c6.07 0 11.23 4.689 13.21 11.26zM271.973 227.527c-8.212 0-14.869 7.502-14.869 16.757s6.657 16.758 14.869 16.758 14.869-7.503 14.869-16.758-6.657-16.757-14.869-16.757m0 46.381c-15.616 0-28.274-13.263-28.274-29.624s12.658-29.623 28.274-29.623c15.615 0 28.274 13.262 28.274 29.623s-12.659 29.624-28.274 29.624M384.468 227.19c-7.65 0-13.86 7.75-13.86 17.311 0 9.559 6.21 17.309 13.86 17.309 5.6 0 10.43-4.149 12.61-10.13.81-2.189 1.25-4.62 1.25-7.179 0-2.561-.44-4.991-1.25-7.18-2.18-5.981-7.01-10.131-12.61-10.131m12.61 65.311v-26.43c-4.21 3.949-9.55 6.3-15.36 6.3-13.61 0-24.64-12.92-24.64-28.861 0-15.929 11.03-28.849 24.64-28.849 5.81 0 11.15 2.349 15.36 6.3v-5.531h13.49v77.071zM352.571 257.806c-.392 2.75-2.979 15.254-17.655 15.254-4.468 0-11.034-.808-16.641-6.757v6.064h-13.482v-56.934h13.482v36.29c2.643 4.335 6.484 8.857 11.017 8.857 4.795 0 7.97-2.804 9.862-5.324v-39.823h13.482v42.373zM182.177 174.297v-9.985h13.776v-23.658h10.846v54.236h-10.846v-20.593zM166.613 132.053v14.637h-9.985v-24.622h51.72v9.985zM182.926 180.6a47.8 47.8 0 0 1 1.06 9.99h-34.52v-9.99h23.55a47 47 0 0 0-2.255-4.982h-24.02l1.383-9.306h16.147c-5.301-5.844-12.043-10.066-19.575-11.781l5.23-7.481c16.19 2.39 29.29 16.241 33 33.55M112.973 171.304h-8.955v-9.984h8.955v-38.564h10.847v70.757h-10.847zM128.468 194.89v-74.544h10.845v74.544z" style="fill:#ad1e2e;fill-opacity:1;fill-rule:nonzero;stroke:none;stroke-width:.0723104" transform="matrix(1.8439 0 0 -1.8439 0 539.937)"/><path d="M98.963 168.701v21.889H88.117v-16.586c-.997-10.134-4.479-22.082-15.12-30.833l7.489-6.52c6.004 4.727 10.054 10.932 12.794 17.42 2.66-6.488 6.654-12.693 12.657-17.42l7.036 7.893c-8.606 7.078-12.411 15.895-14.01 24.157M212.663 140.654v-9.985h68.507v9.985zM215.628 158.57l4.674-8.482c14.852 5.058 22.441 11.518 26.327 17.153 3.885-5.635 11.475-12.095 26.327-17.153l4.674 8.482c-19.811 4.027-24.01 15.658-24.885 19.793h21.023v9.985h-53.702v-9.985h20.446c-.874-4.135-5.074-15.766-24.884-19.793M153.772 64.308c-.88 9.364-9.204 26.331-9.204 26.331l-8.244-3.922c5.907-10.146 7.416-21.083 7.798-26.47l-3.306 2.578c-1.839-2.23-3.168-6.112-6.072-10.525v48.58h-9.985V48.241h6.914c-5.26-6.038-14.271-12.417-31.685-16.668l5.722-9.81c33.976 8.85 41.683 32.628 43.26 34.701l-2.611 2.038z" style="fill:#ad1e2e;fill-opacity:1;fill-rule:nonzero;stroke:none;stroke-width:.0723104" transform="matrix(1.8439 0 0 -1.8439 0 539.937)"/><path d="M102.06 47.75v.001l.97-1.163c13.279 13.238 17.127 38.566 17.127 41.17l-9.284 1.44c-.246-6.3-.821-16.52-7.889-29.151a45 45 0 0 0-6.098 7.671v1.85h8.824v9.985h-8.824v9.81c6.723 2.138 10.625 4.398 10.625 4.398l-6.207 7.759c-6.003-5.282-25.686-7.098-25.686-7.098l3.721-8.526c2.674.223 5.2.569 7.563.994v-7.337H75.618v-9.985h11.284v-.253c-1.3-4.11-4.829-12.791-13.151-20.673l4.376-10.413s4.983 6.65 8.775 12.018V21.763h9.984v32.13c2.752-3.309 5.174-6.143 5.174-6.143" style="fill:#ad1e2e;fill-opacity:1;fill-rule:nonzero;stroke:none;stroke-width:.0723104" transform="matrix(1.8439 0 0 -1.8439 0 539.937)"/></g></svg>